PathFileType	4	(X/Y/Z)	OpenSim_Sub06_EMGBaseline_Magnet.trc
DataRate	CameraRate	NumFrames	NumMarkers	Units	OrigDataRate	OrigDataStartFrame	OrigNumFrames
100	100	16	8	m	100	4136	8270
Frame#	Time	torso_imu_offset_imu	pelvis_imu_offset_imu	tibia_r_imu_offset_imu	femur_r_imu_offset_imu	tibia_l_imu_offset_imu	femur_l_imu_offset_imu	toes_r_imu_offset_imu	toes_l_imu_offset_imu
				X1	Y1	Z1	X2	Y2	Z2	X3	Y3	Z3	X4	Y4	Z4	X5	Y5	Z5	X6	Y6	Z6	X7	Y7	Z7	X8		Y8	Z8	

4136	41.35000000	-0.95516681	-0.10393166	0.12511324	-0.52665600	0.15390485	-0.75441970	-0.31849336	-0.74139589	-0.21096851	-0.65900762	-0.45995530	0.17701863	-0.73379432	0.36989345	0.01255641	-0.75637662	0.11603945	0.32724912	-0.67024431	-0.43756605	-0.42084635	-0.71708672	-0.01747790	-0.45957156
4137	41.36000000	-0.95229414	-0.10813831	0.11450940	-0.53198061	0.16214050	-0.75299059	-0.30599502	-0.74770752	-0.20848309	-0.65918784	-0.45633387	0.17503080	-0.73462609	0.37987549	0.01189368	-0.75315161	0.11982769	0.34271165	-0.67890997	-0.44692884	-0.40770399	-0.72750487	-0.01590909	-0.44949527
4138	41.37000000	-0.94903807	-0.10795195	0.11461348	-0.53829610	0.16380351	-0.75261704	-0.29285728	-0.75804854	-0.20575121	-0.66578761	-0.45844397	0.17525324	-0.73181574	0.37751232	0.01669985	-0.75308237	0.12069749	0.34696401	-0.68631661	-0.46147196	-0.38865470	-0.73893251	0.00776694	-0.43827365
4139	41.38000000	-0.95538979	-0.11043150	0.10822251	-0.53999881	0.16557893	-0.74795820	-0.27604812	-0.76190791	-0.20355623	-0.66928101	-0.45634920	0.17229006	-0.73003949	0.37923811	0.01866738	-0.74836697	0.13381017	0.35796802	-0.69006595	-0.47136055	-0.37437485	-0.71865351	-0.01481974	-0.46647707
4140	41.39000000	-0.95524526	-0.10935414	0.10767883	-0.54002141	0.16106796	-0.74543170	-0.26096201	-0.76825269	-0.20315343	-0.66757581	-0.45846829	0.16831960	-0.72950229	0.37594790	0.02323069	-0.74023614	0.14059246	0.35913538	-0.69427055	-0.47939672	-0.35651755	-0.72705521	-0.04875424	-0.43201422
4141	41.40000000	-0.95701038	-0.10177763	0.09653697	-0.54470281	0.15901454	-0.74103366	-0.24182512	-0.77161279	-0.19805695	-0.67386446	-0.45363252	0.17000189	-0.72340082	0.39499942	0.02174968	-0.74353559	0.15391743	0.35397141	-0.69810458	-0.48860343	-0.32621904	-0.72034620	-0.03089998	-0.44358441
4142	41.41000000	-0.95292856	-0.10853282	0.09769201	-0.54861262	0.15240514	-0.74075478	-0.22547058	-0.77265653	-0.19455147	-0.67417326	-0.44506900	0.16313070	-0.72103445	0.41152443	0.02232609	-0.74296560	0.16117839	0.34769858	-0.70185468	-0.50715435	-0.29565461	-0.72347005	-0.02932521	-0.43990284
4143	41.42000000	-0.95467612	-0.10709369	0.09698229	-0.55045619	0.14601342	-0.73836447	-0.21058411	-0.78467003	-0.20106116	-0.68099340	-0.43478729	0.16487912	-0.70481232	0.42017346	0.04013019	-0.73611578	0.15934633	0.34761551	-0.70549003	-0.51689709	-0.26925873	-0.72188531	-0.04243588	-0.43481623
4144	41.43000000	-0.94913466	-0.09953285	0.08976604	-0.55249244	0.14011199	-0.74327043	-0.19523807	-0.78467486	-0.19937731	-0.68833641	-0.42697512	0.15693164	-0.69300206	0.43403230	0.05251268	-0.73536378	0.16084667	0.34633081	-0.70494303	-0.53084183	-0.22526581	-0.71783665	-0.04618375	-0.42697110
4145	41.44000000	-0.95518494	-0.10399066	0.08363884	-0.55421990	0.14045232	-0.74464044	-0.17451749	-0.79273294	-0.18883051	-0.70238237	-0.42278219	0.15090693	-0.69163887	0.44875434	0.06960103	-0.74308784	0.14933139	0.35487451	-0.70181171	-0.55480022	-0.18931734	-0.71970220	-0.05085703	-0.43350381
4146	41.45000000	-0.95063547	-0.10111753	0.08439038	-0.55440041	0.14036474	-0.73768809	-0.16176853	-0.79323317	-0.19328553	-0.70466967	-0.41132339	0.14921107	-0.68884247	0.45177060	0.08283858	-0.73888531	0.14342400	0.35309376	-0.69569292	-0.56495693	-0.14245921	-0.71541930	-0.05770512	-0.42652039
4147	41.46000000	-0.95378829	-0.09992413	0.08561381	-0.55628811	0.14037669	-0.73798833	-0.13811008	-0.80315290	-0.18849949	-0.71637112	-0.39034042	0.13257614	-0.68223047	0.44964648	0.09798410	-0.74431970	0.13873146	0.36190349	-0.69306168	-0.58633585	-0.09646131	-0.71625053	-0.06650310	-0.43178349
4148	41.47000000	-0.95686462	-0.10377403	0.07697226	-0.55463015	0.14301444	-0.73566322	-0.12000294	-0.79886903	-0.19329651	-0.72696325	-0.37471261	0.13013429	-0.67999909	0.45240911	0.10413915	-0.73093808	0.13577790	0.36019935	-0.68085409	-0.60427945	-0.05045728	-0.70274632	-0.06975014	-0.43296897
4149	41.48000000	-0.95095322	-0.10159692	0.07725793	-0.55618561	0.14857401	-0.73632663	-0.10268215	-0.80547338	-0.19330592	-0.73589361	-0.36204474	0.11973522	-0.67606066	0.45637604	0.11050258	-0.73199432	0.14730426	0.37608302	-0.66192731	-0.62276964	-0.00653657	-0.70423559	-0.06587249	-0.42900613
4150	41.49000000	-0.95502451	-0.10372938	0.07251528	-0.55044774	0.14757269	-0.73827229	-0.08207004	-0.80729726	-0.19963786	-0.74650703	-0.34819913	0.11049097	-0.67835080	0.45668339	0.10968280	-0.72698919	0.15579722	0.37992355	-0.64403771	-0.64332474	0.03477401	-0.70782124	-0.07276351	-0.43378168
4151	41.50000000	-0.95088216	-0.10152646	0.07095750	-0.55748489	0.15946376	-0.73639881	-0.07023857	-0.80650141	-0.20012654	-0.75523633	-0.33934100	0.10347879	-0.67371942	0.46344299	0.10492027	-0.71874317	0.16951131	0.38938879	-0.61370043	-0.66535992	0.06893632	-0.70316267	-0.07478593	-0.43893127
